<?xml version="1.0" encoding="UTF-8"?>
<svg id="Layer_1" xmlns="http://www.w3.org/2000/svg" version="1.1" viewBox="0 0 1080 1080">
  <!-- Generator: Adobe Illustrator 29.0.1, SVG Export Plug-In . SVG Version: 2.1.0 Build 192)  -->
  <defs>
    <style>
      .st0 {
        fill: #ed3664;
      }

      .st1 {
        fill: #4bc2c6;
      }
    </style>
  </defs>
  <path class="st1" d="M854.1,348.1c9.6,9.6,9.6,25.3,0,34.9-5.8,5.8-11.6,11.6-17.4,17.4-5.8,5.8-11.6,11.6-17.4,17.4-9.6,9.6-25.3,9.6-34.9,0-5.8-5.8-11.6-11.6-17.4-17.4-5.8-5.8-11.6-11.6-17.4-17.4-9.6-9.6-9.6-25.3,0-34.9,5.8-5.8,11.6-11.6,17.4-17.4,5.8-5.8,11.6-11.6,17.4-17.4,9.6-9.6,25.3-9.6,34.9,0l34.9,34.9Z"/>
  <path class="st0" d="M697,679.6l17.4,17.4c9.6,9.6,9.6,25.3,0,34.9l-34.9,34.9c-9.6,9.6-25.3,9.6-34.9,0-5.8-5.8-11.6-11.6-17.4-17.4l-34.9-34.9-34.9-34.9c-11.6-11.6-23.3-23.3-34.9-34.9-5.8-5.8-11.6-11.6-17.4-17.4-9.6-9.6-25.3-9.6-34.9,0h0c-9.6,9.6-9.6,25.3,0,34.9l34.9,34.9c9.6,9.6,9.6,25.3,0,34.9s-11.6,11.6-17.4,17.4c-5.8,5.8-11.6,11.6-17.4,17.4-9.6,9.6-25.3,9.6-34.9,0l-87.2-87.2c-11.6-11.6-23.3-23.3-34.9-34.9-11.6-11.6-23.3-23.3-34.9-34.9-11.6-11.6-23.3-23.3-34.9-34.9l-17.4-17.4c-9.6-9.6-9.6-25.3,0-34.9l17.4-17.4c11.6-11.6,23.3-23.3,34.9-34.9,11.6-11.6,23.3-23.3,34.9-34.9l104.7-104.7c5.8-5.8,11.6-11.6,17.4-17.4,9.6-9.6,25.3-9.6,34.9,0l34.9,34.9c9.6,9.6,9.6,25.3,0,34.9-5.8,5.8-11.6,11.6-17.4,17.4l-34.9,34.9c-11.6,11.6-23.3,23.3-34.9,34.9-11.6,11.6-23.3,23.3-34.9,34.9l-17.4,17.4c-9.6,9.6-9.6,25.3,0,34.9h0c9.6,9.6,25.3,9.6,34.9,0l17.4-17.4c11.6-11.6,23.3-23.3,34.9-34.9,11.6-11.6,23.3-23.3,34.9-34.9l104.7-104.7c11.6-11.6,23.3-23.3,34.9-34.9,5.8-5.8,11.6-11.6,17.4-17.4,9.6-9.6,25.3-9.6,34.9,0l17.4,17.4c5.8,5.8,11.6,11.6,17.4,17.4,9.6,9.6,9.6,25.3,0,34.9l-87.2,87.2c-11.6,11.6-23.3,23.3-34.9,34.9l-17.4,17.4c-9.6,9.6-9.6,25.3,0,34.9l52.3,52.3c11.6,11.6,23.3,23.3,34.9,34.9,11.6,11.6,23.3,23.3,34.9,34.9Z"/>
</svg>